<svg width="124" height="29" viewBox="0 0 124 29" fill="none" xmlns="http://www.w3.org/2000/svg">
<path d="M11.256 9.924C11.144 10.108 11.028 10.244 10.908 10.332C10.796 10.412 10.648 10.452 10.464 10.452C10.288 10.452 10.096 10.392 9.888 10.272C9.688 10.144 9.452 10.008 9.18 9.864C8.908 9.72 8.596 9.588 8.244 9.468C7.892 9.34 7.48 9.276 7.008 9.276C6.176 9.276 5.552 9.464 5.136 9.84C4.72 10.208 4.512 10.692 4.512 11.292C4.512 11.676 4.624 11.996 4.848 12.252C5.08 12.5 5.38 12.716 5.748 12.9C6.124 13.084 6.548 13.248 7.02 13.392C7.492 13.536 7.976 13.696 8.472 13.872C8.968 14.04 9.452 14.24 9.924 14.472C10.396 14.704 10.816 14.996 11.184 15.348C11.56 15.7 11.86 16.132 12.084 16.644C12.316 17.148 12.432 17.764 12.432 18.492C12.432 19.284 12.292 20.028 12.012 20.724C11.74 21.412 11.344 22.016 10.824 22.536C10.304 23.048 9.66 23.452 8.892 23.748C8.132 24.044 7.268 24.192 6.3 24.192C5.748 24.192 5.196 24.136 4.644 24.024C4.1 23.912 3.572 23.756 3.06 23.556C2.556 23.356 2.08 23.116 1.632 22.836C1.184 22.556 0.792 22.244 0.456 21.9L1.512 20.196C1.6 20.068 1.716 19.964 1.86 19.884C2.004 19.796 2.156 19.752 2.316 19.752C2.532 19.752 2.76 19.832 3 19.992C3.24 20.152 3.516 20.328 3.828 20.52C4.14 20.712 4.5 20.888 4.908 21.048C5.324 21.208 5.82 21.288 6.396 21.288C7.236 21.288 7.884 21.096 8.34 20.712C8.804 20.328 9.036 19.756 9.036 18.996C9.036 18.556 8.92 18.2 8.688 17.928C8.464 17.656 8.168 17.428 7.8 17.244C7.432 17.06 7.012 16.904 6.54 16.776C6.068 16.64 5.584 16.492 5.088 16.332C4.592 16.172 4.108 15.98 3.636 15.756C3.164 15.532 2.744 15.236 2.376 14.868C2.008 14.5 1.708 14.044 1.476 13.5C1.252 12.956 1.14 12.28 1.14 11.472C1.14 10.824 1.268 10.196 1.524 9.588C1.78 8.98 2.156 8.44 2.652 7.968C3.148 7.496 3.756 7.116 4.476 6.828C5.204 6.54 6.036 6.396 6.972 6.396C8.02 6.396 8.988 6.56 9.876 6.888C10.772 7.208 11.528 7.656 12.144 8.232L11.256 9.924ZM46.296 15.132H52.272V22.32C51.384 22.968 50.436 23.444 49.428 23.748C48.428 24.044 47.368 24.192 46.248 24.192C44.816 24.192 43.52 23.972 42.36 23.532C41.2 23.084 40.208 22.464 39.384 21.672C38.56 20.88 37.924 19.94 37.476 18.852C37.028 17.764 36.804 16.576 36.804 15.288C36.804 13.984 37.016 12.788 37.44 11.7C37.872 10.612 38.484 9.676 39.276 8.892C40.068 8.108 41.024 7.496 42.144 7.056C43.272 6.616 44.532 6.396 45.924 6.396C46.644 6.396 47.316 6.456 47.94 6.576C48.564 6.688 49.14 6.848 49.668 7.056C50.196 7.256 50.68 7.496 51.12 7.776C51.56 8.056 51.96 8.364 52.32 8.7L51.276 10.308C51.116 10.564 50.908 10.72 50.652 10.776C50.396 10.832 50.116 10.768 49.812 10.584C49.524 10.408 49.24 10.252 48.96 10.116C48.688 9.972 48.396 9.848 48.084 9.744C47.772 9.64 47.432 9.56 47.064 9.504C46.696 9.448 46.272 9.42 45.792 9.42C44.984 9.42 44.252 9.56 43.596 9.84C42.94 10.12 42.38 10.516 41.916 11.028C41.46 11.54 41.108 12.156 40.86 12.876C40.612 13.596 40.488 14.4 40.488 15.288C40.488 16.248 40.624 17.108 40.896 17.868C41.168 18.62 41.552 19.256 42.048 19.776C42.544 20.296 43.136 20.692 43.824 20.964C44.52 21.236 45.292 21.372 46.14 21.372C46.716 21.372 47.228 21.316 47.676 21.204C48.132 21.084 48.576 20.924 49.008 20.724V17.796H47.04C46.808 17.796 46.624 17.736 46.488 17.616C46.36 17.488 46.296 17.328 46.296 17.136V15.132ZM74.4146 6.588V24H71.2346V13.308C71.2346 13.084 71.2386 12.844 71.2466 12.588C71.2626 12.332 71.2866 12.072 71.3186 11.808L66.3386 21.252C66.0666 21.772 65.6466 22.032 65.0786 22.032H64.5746C64.2946 22.032 64.0466 21.968 63.8306 21.84C63.6146 21.704 63.4426 21.508 63.3146 21.252L58.3106 11.772C58.3346 12.052 58.3546 12.324 58.3706 12.588C58.3866 12.844 58.3946 13.084 58.3946 13.308V24H55.2146V6.588H57.9506C58.1026 6.588 58.2386 6.592 58.3586 6.6C58.4786 6.608 58.5826 6.632 58.6706 6.672C58.7666 6.704 58.8506 6.76 58.9226 6.84C59.0026 6.912 59.0786 7.016 59.1506 7.152L64.0226 16.44C64.1746 16.72 64.3146 17.008 64.4426 17.304C64.5786 17.6 64.7066 17.904 64.8266 18.216C64.9466 17.896 65.0706 17.584 65.1986 17.28C65.3346 16.976 65.4786 16.684 65.6306 16.404L70.4666 7.152C70.5386 7.016 70.6146 6.912 70.6946 6.84C70.7746 6.76 70.8586 6.704 70.9466 6.672C71.0426 6.632 71.1466 6.608 71.2586 6.6C71.3786 6.592 71.5186 6.588 71.6786 6.588H74.4146ZM81.6668 9.408V13.884H87.4748V16.608H81.6668V21.18H89.1308V24H78.0428V6.588H89.1308V9.408H81.6668ZM106.74 6.588V24H104.88C104.6 24 104.364 23.956 104.172 23.868C103.98 23.772 103.792 23.612 103.608 23.388L94.932 12.348C94.956 12.628 94.972 12.904 94.98 13.176C94.996 13.448 95.004 13.7 95.004 13.932V24H91.824V6.588H93.72C93.872 6.588 94 6.596 94.104 6.612C94.216 6.62 94.316 6.648 94.404 6.696C94.492 6.736 94.576 6.792 94.656 6.864C94.736 6.936 94.824 7.032 94.92 7.152L103.656 18.24C103.624 17.936 103.6 17.644 103.584 17.364C103.568 17.076 103.56 16.804 103.56 16.548V6.588H106.74ZM122.711 9.492H117.623V24H114.011V9.492H108.923V6.588H122.711V9.492Z" fill="black"/>
<rect x="16" y="7" width="17" height="3" fill="#2E69E7"/>
<rect x="16" y="14" width="17" height="3" fill="#2E69E7"/>
<rect x="16" y="21" width="17" height="3" fill="#2E69E7"/>
</svg>
