<svg width="26" height="26" viewBox="0 0 26 26" fill="none" xmlns="http://www.w3.org/2000/svg">
<g clip-path="url(#clip0_2075_477)">
<path d="M7.58334 10.4725C7.58334 9.70623 7.88775 8.97133 8.42959 8.42949C8.97142 7.88765 9.70632 7.58325 10.4726 7.58325H19.8608C20.2402 7.58325 20.6159 7.65798 20.9664 7.80318C21.317 7.94838 21.6355 8.1612 21.9038 8.42949C22.1721 8.69779 22.3849 9.01629 22.5301 9.36683C22.6753 9.71737 22.75 10.0931 22.75 10.4725V19.8607C22.75 20.2401 22.6753 20.6158 22.5301 20.9663C22.3849 21.3169 22.1721 21.6354 21.9038 21.9037C21.6355 22.172 21.317 22.3848 20.9664 22.53C20.6159 22.6752 20.2402 22.7499 19.8608 22.7499H10.4726C10.0932 22.7499 9.71747 22.6752 9.36693 22.53C9.01639 22.3848 8.69788 22.172 8.42959 21.9037C8.16129 21.6354 7.94847 21.3169 7.80327 20.9663C7.65808 20.6158 7.58334 20.2401 7.58334 19.8607V10.4725Z" stroke="#2E69E7" stroke-width="2" stroke-linecap="round" stroke-linejoin="round"/>
<path d="M4.34633 18.1317C4.01412 17.9424 3.7378 17.6686 3.54529 17.3382C3.35278 17.0078 3.25092 16.6324 3.25 16.25V5.41667C3.25 4.225 4.225 3.25 5.41667 3.25H16.25C17.0625 3.25 17.5045 3.66708 17.875 4.33333" stroke="#2E69E7" stroke-width="2" stroke-linecap="round" stroke-linejoin="round"/>
</g>
<defs>
<clipPath id="clip0_2075_477">
<rect width="26" height="26" fill="white"/>
</clipPath>
</defs>
</svg>
