<svg width="100" height="100" viewBox="0 0 100 100" fill="none" xmlns="http://www.w3.org/2000/svg">
<g clip-path="url(#clip0_2124_2376)">
<path d="M62.4417 14.625C56.5097 12.5384 50.1482 11.977 43.9424 12.9924C37.7366 14.0079 31.8858 16.5676 26.9283 20.4361C21.9707 24.3046 18.0656 29.3577 15.5721 35.1305C13.0786 40.9034 12.0769 47.2105 12.659 53.4718C13.2412 59.7331 15.3885 65.7475 18.9035 70.9617C22.4185 76.1759 27.1883 80.4224 32.774 83.3107C38.3598 86.1989 44.5822 87.6362 50.8688 87.4901C57.1554 87.3441 63.3044 85.6195 68.75 82.475C79.1208 76.4875 86.1708 65.9 87.5 54.1667" stroke="#A4A7AB" stroke-width="2" stroke-linecap="round" stroke-linejoin="round"/>
<path d="M41.6667 41.6667H41.7102" stroke="#A4A7AB" stroke-width="6" stroke-linecap="round" stroke-linejoin="round"/>
<path d="M58.3333 33.3333H58.3768" stroke="#A4A7AB" stroke-width="6" stroke-linecap="round" stroke-linejoin="round"/>
<path d="M50 62.5001C54.1667 56.9459 58.3333 54.1667 62.5 54.1667" stroke="#A4A7AB" stroke-width="3" stroke-linecap="round" stroke-linejoin="round"/>
<path d="M83.3333 37.5V37.5435" stroke="#A4A7AB" stroke-width="4" stroke-linecap="round" stroke-linejoin="round"/>
<path d="M83.3333 24.9999C85.2012 24.9939 87.0131 24.3615 88.479 23.2039C89.945 22.0462 90.9802 20.4303 91.419 18.6146C91.8577 16.799 91.6748 14.8886 90.8993 13.1893C90.1238 11.49 88.8007 10.0999 87.1416 9.24158C85.484 8.39246 83.5879 8.12918 81.7617 8.49458C79.9355 8.85997 78.2866 9.83255 77.0833 11.2541" stroke="#A4A7AB" stroke-width="2" stroke-linecap="round" stroke-linejoin="round"/>
</g>
<defs>
<clipPath id="clip0_2124_2376">
<rect width="100" height="100" fill="white"/>
</clipPath>
</defs>
</svg>
